<svg width="887" height="574" viewBox="0 0 887 574" fill="none" xmlns="http://www.w3.org/2000/svg">
<g id="Frame 2">
<rect id="Rectangle 1" x="355" y="405" width="75" height="103" fill="#D9D9D9"/>
<g id="Developer">
<g id="Vector">
<path d="M304.566 505.5C300.115 505.109 195.111 495.686 156.969 476.454C155.328 475.627 153.835 474.9 152.517 474.259C145.356 470.774 143.289 463.621 141.145 457.576C141.145 444.883 150.114 436.502 163.084 434.79C165.36 434.416 165.254 437.812 167.586 437.812C172.306 437.812 177.001 438.598 181.198 440.089L319.561 489.125L310.1 505.987L304.566 505.5Z" fill="#3E98D4"/>
<path d="M304.566 505.5C300.115 505.109 195.111 495.686 156.969 476.454C155.328 475.627 153.835 474.9 152.517 474.259C145.356 470.774 143.289 463.621 141.145 457.576C141.145 444.883 150.114 436.502 163.084 434.79C165.36 434.416 165.254 437.812 167.586 437.812C172.306 437.812 177.001 438.598 181.198 440.089L319.561 489.125L310.1 505.987L304.566 505.5Z" fill="#3E98D4"/>
</g>
<g id="leg-left">
<path id="Vector_2" d="M181.579 508.768C181.579 508.768 153.872 521.644 139.15 522.185C124.429 522.726 125.859 508.655 128.198 506.114C136.308 497.302 167.156 491.43 174.921 491.43C181.449 491.43 179.592 496.179 179.84 497.988C180.088 499.798 181.579 508.768 181.579 508.768Z" fill="#001B47"/>
<path id="Vector_3" d="M153.153 527.081H153.152C152.964 527.081 152.788 526.91 152.681 526.758C152.466 526.452 152.223 526.066 155.356 517.883C156.861 513.952 158.447 510.038 158.463 509.999C158.56 509.761 158.826 509.622 159.083 509.692C159.338 509.762 159.496 510.003 159.45 510.254C159.369 510.691 157.427 521.09 154.239 526.011C153.746 526.771 153.492 527.081 153.153 527.081ZM156.735 517.108C155.729 519.71 154.853 522.075 154.283 523.761C155.25 521.801 156.078 519.373 156.735 517.108Z" fill="#001B47"/>
<path id="Vector_4" d="M172.25 524.905C172.012 524.905 171.717 524.789 171.233 524.505C166.307 521.62 158.778 510.91 158.459 510.456C158.311 510.244 158.351 509.957 158.551 509.791C158.752 509.626 159.047 509.637 159.235 509.816C159.27 509.85 162.741 513.177 166.12 516.573C173.182 523.669 172.998 524.115 172.819 524.544C172.726 524.767 172.508 524.905 172.25 524.905ZM163.303 515.182C165.62 518.065 168.542 521.388 170.936 523.112C169.509 521.439 166.59 518.433 163.303 515.182Z" fill="#001B47"/>
</g>
<g id="leg-right">
<path id="Vector_5" d="M314.303 507.317C314.303 507.317 340.844 520.86 355.036 521.612C369.228 522.364 367.659 508.433 365.443 505.953C357.759 497.353 328.418 492.203 322.076 489.38C315.735 486.557 312.917 500.351 312.648 502.087C312.38 503.823 314.303 507.317 314.303 507.317Z" fill="#001B47"/>
<path id="Vector_6" d="M330.604 523.092H330.604C330.398 523.092 330.203 522.955 330.056 522.816C328.985 521.804 329.827 512.835 330.239 509.029C330.264 508.783 330.503 508.586 330.79 508.586H330.796C331.08 508.586 331.319 508.746 331.352 508.989C331.733 511.867 332.847 521.416 331.188 522.818C330.967 523.005 330.749 523.092 330.604 523.092ZM330.829 515.027C330.644 517.806 330.583 520.194 330.716 521.385C330.997 520.223 331.006 517.825 330.829 515.027Z" fill="#001B47"/>
<path id="Vector_7" d="M317.077 518.74C316.872 518.74 316.693 518.653 316.583 518.501C316.491 518.373 316.458 518.213 316.492 518.053C316.564 517.715 316.672 517.204 323.734 512.813C327.143 510.694 330.568 508.675 330.603 508.655C330.828 508.522 331.119 508.588 331.265 508.805C331.41 509.021 331.359 509.312 331.148 509.467C328.187 511.643 318.421 518.74 317.077 518.74Z" fill="#001B47"/>
</g>
<g id="body">
<path id="Vector_8" d="M262.083 343.587C257.822 350.153 230.247 351.266 225.276 345.219C228.54 341.43 232.353 344.748 229.99 332.377C234.123 336.785 238.47 338.698 244.663 338.698C250.474 338.698 254.774 336.316 258.82 332.377C256.644 343.406 260.27 340.324 262.083 343.587Z" fill="#E2DDB5"/>
<path id="Vector_9" d="M269.88 306.961C266.798 312.038 267.278 314.395 266.435 317.145C265.528 317.659 264.808 317.166 264.622 317.145C262.438 329.764 253.924 341.774 244.495 343.95C235.43 341.23 225.426 329.828 223.281 317.145C222.841 317.257 221.934 317.145 221.468 317.145C220.743 312.401 220.924 312.038 217.842 307.505C216.391 302.61 216.526 301.109 220.268 301.109C220.586 301.109 222.973 301.056 223.281 301.109C224.055 279.532 231.971 276.137 244.179 276.137C256.373 276.137 263.834 279.601 264.622 301.109C264.666 301.104 267.234 301.109 267.278 301.109C271.019 301.11 269.88 301.703 269.88 306.961Z" fill="#EDE8C1"/>
<path id="Vector_10" d="M263.968 302.988C267.209 297.945 268.492 294.435 272.854 289.492C276.276 285.615 279.735 283.211 276.182 277.746C271.801 271.007 264.055 267.775 257.688 272.81C257.702 268.111 258.385 261.879 253.609 258.807C248.107 255.27 241.548 259.499 236.593 261.472C227.983 264.902 226.308 259.512 219.808 255.623C213.744 251.994 208.652 254.278 209.436 264.891C197.136 262.826 200.625 274.176 201.523 280.126C202.723 288.068 207.507 286.473 209.127 288.441C211.683 288.92 214.353 288.383 214.943 291.44C215.337 293.485 211.971 295.683 213.208 297.547C214.832 299.994 216.923 296.922 218.397 297.729C219.941 298.583 223.07 301.356 223.281 302.791C223.644 300.978 223.463 291.44 227.122 291.335C231.092 293.416 229.588 285.044 234.037 285.245C241.783 285.595 245.724 289.016 249.597 289.965C254.739 291.225 257.337 286.959 260.712 289.67C263.412 291.839 263.231 299.405 263.968 302.988Z" fill="#001B47"/>
<path id="Vector_11" d="M231.649 318.535C226.129 318.535 221.638 314.045 221.638 308.526C221.638 303.006 226.129 298.516 231.649 298.516C237.168 298.516 241.658 303.006 241.658 308.526C241.658 314.045 237.168 318.535 231.649 318.535ZM231.649 299.983C226.938 299.983 223.106 303.816 223.106 308.526C223.106 313.236 226.938 317.068 231.649 317.068C236.359 317.068 240.191 313.236 240.191 308.526C240.191 303.816 236.359 299.983 231.649 299.983Z" fill="#A60F06"/>
<path id="Vector_12" d="M255.619 318.535C250.099 318.535 245.609 314.045 245.609 308.526C245.609 303.006 250.099 298.516 255.619 298.516C261.139 298.516 265.629 303.006 265.629 308.526C265.629 314.045 261.139 318.535 255.619 318.535ZM255.619 299.983C250.909 299.983 247.077 303.816 247.077 308.526C247.077 313.236 250.909 317.068 255.619 317.068C260.33 317.068 264.162 313.236 264.162 308.526C264.162 303.816 260.33 299.983 255.619 299.983Z" fill="#A60F06"/>
<path id="Vector_13" d="M246.342 309.26C246.207 309.26 246.07 309.222 245.948 309.144C244.593 308.278 242.042 308.902 241.174 309.216C240.796 309.353 240.373 309.157 240.235 308.776C240.097 308.395 240.293 307.974 240.673 307.837C240.829 307.78 244.494 306.474 246.738 307.908C247.079 308.126 247.18 308.58 246.961 308.921C246.821 309.14 246.584 309.26 246.342 309.26Z" fill="#A60F06"/>
<path id="Vector 2" d="M207.688 348.846C212.04 346.488 220.501 345.159 227.633 343.225C230.897 344.796 239.447 348.846 244.677 348.846C254.65 348.846 262.265 343.225 262.265 343.225C262.265 343.225 277.75 345.954 281.847 348.846C291.094 355.373 313.215 411.4 316.116 420.829C319.017 430.257 318.836 431.889 310.133 438.416C301.429 444.944 257.007 462.169 247.216 462.894C237.424 463.619 190.101 443.493 181.397 434.79C172.694 426.087 202.832 351.476 207.688 348.846Z" fill="#F9D51B"/>
</g>
<path id="Vector_14" d="M313.578 507.136C309.242 506.598 237.175 504.627 190.101 487.372C188.279 486.705 230.436 468.302 229.153 467.422C222.18 462.639 187.124 462.844 185.037 454.547C181.318 439.768 150.921 437.14 166.32 433.57C168.536 433.056 170.811 432.796 173.082 432.796C177.678 432.796 182.25 433.874 186.338 435.92C186.338 435.92 318.111 489.004 319.38 489.367C320.649 489.729 322.281 498.07 321.193 500.608C320.105 503.147 317.913 507.673 313.578 507.136Z" fill="#1381BB"/>
<g id="Vector_15">
<path d="M189.919 507.861C194.416 507.416 300.404 494.901 338.933 473.058C340.591 472.118 342.099 471.293 343.43 470.565C350.664 466.606 352.752 458.482 354.918 451.616C354.918 437.201 348.324 431.755 335.221 429.81C332.923 429.385 330.564 429.169 328.208 429.169C323.44 429.169 318.698 430.062 314.457 431.755L174.688 491.568C174.688 491.568 173.056 497.345 175.958 502.421C176.982 504.215 178.471 507.345 180.672 507.861C184.7 508.806 189.919 507.861 189.919 507.861Z" fill="#3E98D4"/>
<path d="M189.919 507.861C194.416 507.416 300.404 494.901 338.933 473.058C340.591 472.118 342.099 471.293 343.43 470.565C350.664 466.606 352.752 458.482 354.918 451.616C354.918 437.201 348.324 431.755 335.221 429.81C332.923 429.385 330.564 429.169 328.208 429.169C323.44 429.169 318.698 430.062 314.457 431.755L174.688 491.568C174.688 491.568 173.056 497.345 175.958 502.421C176.982 504.215 178.471 507.345 180.672 507.861C184.7 508.806 189.919 507.861 189.919 507.861Z" fill="#3E98D4"/>
</g>
<path id="Vector_16" d="M291.457 454.63C291.457 458.248 288.72 461.444 285.165 461.444H209.92C206.364 461.444 203.337 458.248 203.337 454.63V409.235C203.337 405.617 206.364 403.06 209.92 403.06H285.165C288.72 403.06 291.457 405.617 291.457 409.235V454.63V454.63Z" fill="#001B47"/>
<path id="Vector_17" d="M247.759 438.235C250.663 438.235 253.018 436.124 253.018 433.521C253.018 430.917 250.663 428.807 247.759 428.807C244.855 428.807 242.501 430.917 242.501 433.521C242.501 436.124 244.855 438.235 247.759 438.235Z" fill="#EBEFF0"/>
</g>
<g id="Light">
<path id="Vector_18" d="M10.7773 499.883C10.7773 501.486 12.1401 502.784 13.8212 502.784H103.832C105.513 502.784 106.875 501.486 106.875 499.883C106.875 498.281 105.513 496.982 103.832 496.982H54.6957H13.8215C12.1402 496.982 10.7773 498.281 10.7773 499.883Z" fill="#001B47"/>
<path id="Vector_19" d="M54.5516 497.345C54.6646 497.345 54.7787 497.312 54.8798 497.244C55.1495 497.063 55.221 496.696 55.0393 496.426C54.9256 496.257 43.5172 479.095 33.3185 447.495C23.9058 418.332 13.6286 370.558 18.119 308.575C21.5245 261.569 36.6148 226.37 62.9701 203.957C83.1347 186.808 103.225 183.046 108.902 182.301C109.224 182.259 109.451 181.963 109.409 181.64C109.367 181.318 109.073 181.089 108.749 181.133C102.99 181.888 82.6177 185.702 62.2076 203.059C50.3999 213.101 40.6847 225.963 33.3319 241.286C24.3298 260.047 18.816 282.658 16.9442 308.491C12.4383 370.69 22.7613 418.639 32.2145 447.911C42.4649 479.65 53.9472 496.915 54.062 497.085C54.1758 497.253 54.3621 497.345 54.5516 497.345Z" fill="#001B47"/>
<g id="light1">
<path id="Vector_20" d="M107.246 185.13L110.418 190.351L125.937 181.014L122.765 175.793C121.719 174.07 119.474 173.517 117.743 174.558L113.732 176.969H113.726L108.481 180.132C106.756 181.173 106.2 183.413 107.246 185.13Z" fill="#001B47"/>
<path id="Vector_21" d="M103.619 198.745L113.523 257.845C114.568 259.576 116.816 260.132 118.54 259.086L182.917 220.117C184.646 219.072 185.201 216.82 184.157 215.095L137.339 178.336C136.294 176.605 134.046 176.055 132.322 177.101L125.912 180.983L110.407 190.366L104.858 193.723C103.129 194.768 102.574 197.014 103.619 198.745Z" fill="#EB0606"/>
</g>
</g>
<g id="plant">
<path id="Vector_22" d="M358.063 318.21C357.958 318.21 357.852 318.18 357.759 318.117C354.929 316.199 353.04 315.224 353.021 315.214C352.755 315.078 352.649 314.751 352.786 314.484C352.923 314.218 353.25 314.112 353.517 314.249C353.595 314.289 355.478 315.26 358.368 317.219C358.616 317.387 358.68 317.724 358.513 317.972C358.407 318.127 358.237 318.21 358.063 318.21Z" fill="#EBEFF0"/>
<path id="Vector_23" d="M370.316 399.237C370.055 399.237 369.825 399.048 369.781 398.781L368.864 393.086C368.817 392.79 369.018 392.512 369.313 392.464C369.609 392.417 369.887 392.617 369.935 392.913L370.852 398.608C370.9 398.904 370.698 399.183 370.403 399.23C370.373 399.235 370.344 399.237 370.316 399.237Z" fill="#EBEFF0"/>
<path id="Vector_24" d="M364.607 373.582H415.86L410.401 404.878H369.623L364.607 373.582Z" fill="#E54C42"/>
<path id="Vector_25" d="M440.906 341.139C436.003 350.583 430.467 357.367 424.873 362.229C406.927 377.815 388.388 373.582 388.388 373.582C388.388 373.582 393.443 348.322 418.376 341.828C424.58 340.209 432.012 339.753 440.906 341.139Z" fill="#3E98D4"/>
<path id="Vector_26" d="M424.873 362.23C406.927 377.816 388.388 373.583 388.388 373.583C388.388 373.583 393.443 348.322 418.376 341.828C411.102 358.356 422.051 349.851 423.6 352.306C425.213 354.861 426.481 356.404 424.873 362.23Z" fill="#001B47"/>
<path id="Vector_27" d="M388.578 373.777L388.201 373.387C388.225 373.364 390.658 371.024 394.643 367.641C404.379 359.376 423.328 344.908 440.844 340.874L440.966 341.403C423.562 345.411 404.692 359.821 394.993 368.055C391.023 371.425 388.602 373.754 388.578 373.777Z" fill="#001B47"/>
<path id="Vector_28" d="M416.614 367.9L401.511 362.225L401.32 362.733L416.423 368.408L416.614 367.9Z" fill="#001B47"/>
<path id="Vector_29" d="M420.187 365.672L403.439 360.746L403.286 361.266L420.034 366.193L420.187 365.672Z" fill="#001B47"/>
<path id="Vector_30" d="M416.09 342.664L415.582 342.476L410.829 355.35L411.338 355.538L416.09 342.664Z" fill="#001B47"/>
<path id="Vector_31" d="M418.831 350.861L418.557 350.393L418.694 350.627L418.556 350.394C419.046 350.073 421.079 345.256 422.761 340.783L423.269 340.974C422.681 342.535 419.707 350.351 418.831 350.861Z" fill="#001B47"/>
<path id="Vector_32" d="M434.041 352.13L424.322 347.328L424.082 347.814L433.8 352.616L434.041 352.13Z" fill="#001B47"/>
<path id="Vector_33" d="M398.694 354.19L398.157 354.114L396.439 366.229L396.976 366.305L398.694 354.19Z" fill="#001B47"/>
<path id="Vector_34" d="M424.467 362.398L407.596 357.68L407.45 358.203L424.321 362.92L424.467 362.398Z" fill="#001B47"/>
<path id="Vector_35" d="M414.671 348.409C406.407 369.811 388.724 374.765 388.724 374.765C388.724 374.765 384.519 361.177 390.202 347.094C393.985 337.722 402.141 328.132 418.822 322.174C419.026 332.888 417.34 341.505 414.671 348.409Z" fill="#3E98D4"/>
<path id="Vector_36" d="M414.671 348.409C406.407 369.811 388.724 374.765 388.724 374.765C388.724 374.765 384.519 361.177 390.202 347.094C389.985 352.492 394.136 352.542 395.731 354.861C397.786 357.849 399.812 348.47 414.671 348.409Z" fill="#001B47"/>
<path id="Vector_37" d="M388.983 374.847L388.465 374.683C388.475 374.652 389.476 371.494 391.329 366.709C395.855 355.017 405.423 333.659 418.642 321.973L419.001 322.379C405.868 333.989 396.343 355.259 391.834 366.905C389.989 371.672 388.992 374.815 388.983 374.847Z" fill="#001B47"/>
<path id="Vector_38" d="M410.471 357.186L410.397 356.649L394.709 358.82L394.784 359.358L410.471 357.186Z" fill="#001B47"/>
<path id="Vector_39" d="M412.536 353.56L412.422 353.03L395.671 356.635L395.785 357.165L412.536 353.56Z" fill="#001B47"/>
<path id="Vector_40" d="M400.094 348.428L398.167 335.097L397.631 335.174L399.557 348.505L400.094 348.428Z" fill="#001B47"/>
<path id="Vector_41" d="M404.34 340.907L403.876 340.625L404.108 340.766L403.875 340.627C404.146 340.117 403.643 335.012 402.999 330.37L403.536 330.296C403.852 332.575 404.845 340.076 404.34 340.907Z" fill="#001B47"/>
<path id="Vector_42" d="M418.082 335.422L418.061 334.88L407.427 335.283L407.448 335.825L418.082 335.422Z" fill="#001B47"/>
<path id="Vector_43" d="M392.73 364.484L388.539 353.227L388.03 353.416L392.221 364.673L392.73 364.484Z" fill="#001B47"/>
<path id="Vector_44" d="M414.72 348.715L414.599 348.187L397.844 352.05L397.966 352.579L414.72 348.715Z" fill="#001B47"/>
<path id="Vector_45" d="M348.45 324.297C348.397 319.882 348.771 315.099 349.662 309.918C390.531 331.955 390.031 363.23 388.895 372.392C388.689 374.074 388.459 375.009 388.459 375.009C388.459 375.009 363.908 369.692 353.269 346.782V346.779C350.411 340.63 348.559 333.215 348.45 324.297Z" fill="#3E98D4"/>
<path id="Vector_46" d="M388.895 372.392C388.689 374.074 388.459 375.009 388.459 375.009C388.459 375.009 363.908 369.692 353.269 346.782V346.779C353.269 346.779 377.615 355.426 382.348 359.657C385.178 362.186 387.494 368.07 388.895 372.392Z" fill="#001B47"/>
<path id="Vector_47" d="M388.46 375.281C388.311 375.281 388.299 375.281 386.344 373.066C385.234 371.81 383.466 369.77 381.337 367.18C371.386 355.072 354.004 331.54 349.396 309.976L349.927 309.862C354.51 331.314 371.837 354.766 381.757 366.835C385.875 371.847 388.63 374.795 388.656 374.823L388.459 375.008V375.281H388.46Z" fill="#001B47"/>
<path id="Vector_48" d="M382.589 340.458L382.085 340.26L374.829 358.686L375.332 358.884L382.589 340.458Z" fill="#001B47"/>
<path id="Vector_49" d="M379.925 336.032L379.407 335.87L373.026 356.327L373.544 356.488L379.925 336.032Z" fill="#001B47"/>
<path id="Vector_50" d="M366.719 346.519L351.013 340.428L350.817 340.934L366.522 347.026L366.719 346.519Z" fill="#001B47"/>
<path id="Vector_51" d="M360.638 337.499C360.291 336.88 354.329 334.267 348.895 332.125L349.094 331.619C350.995 332.37 360.513 336.166 361.112 337.234L360.638 337.499Z" fill="#001B47"/>
<path id="Vector_52" d="M363.561 318.812L363.079 318.564L356.99 330.396L357.471 330.644L363.561 318.812Z" fill="#001B47"/>
<path id="Vector_53" d="M379.684 364.412L364.848 362.062L364.764 362.597L379.599 364.948L379.684 364.412Z" fill="#001B47"/>
<path id="Vector_54" d="M375.999 330.706L375.48 330.552L369.362 351.167L369.881 351.321L375.999 330.706Z" fill="#001B47"/>
<path id="Vector_55" d="M404.785 373.582H415.741L410.282 404.878H402.202L404.785 373.582Z" fill="#AC0D1A"/>
<path id="Vector_56" d="M388.46 375.009C388.46 375.009 394.166 346.486 426.481 351.521C411.557 380.284 388.46 375.009 388.46 375.009Z" fill="#3E98D4"/>
<path id="Vector_57" d="M388.649 375.205L388.272 374.814C388.29 374.797 390.052 373.102 392.939 370.651C399.994 364.663 413.725 354.18 426.421 351.257L426.542 351.785C413.959 354.683 400.307 365.109 393.29 371.065C390.417 373.503 388.666 375.188 388.649 375.205Z" fill="#001B47"/>
<path id="Vector_58" d="M408.921 370.824L397.986 366.716L397.795 367.224L408.73 371.332L408.921 370.824Z" fill="#001B47"/>
<path id="Vector_59" d="M411.51 369.211L399.384 365.644L399.231 366.164L411.357 369.73L411.51 369.211Z" fill="#001B47"/>
<path id="Vector_60" d="M408.599 352.633L408.091 352.445L404.645 361.764L405.153 361.952L408.599 352.633Z" fill="#001B47"/>
<path id="Vector_61" d="M410.537 358.625L410.264 358.156L410.257 358.16C410.622 357.878 412.078 354.418 413.275 351.237L413.782 351.428C413.014 353.47 411.16 358.262 410.537 358.625Z" fill="#001B47"/>
<path id="Vector_62" d="M421.538 359.413L414.501 355.936L414.261 356.422L421.298 359.899L421.538 359.413Z" fill="#001B47"/>
<path id="Vector_63" d="M395.992 360.969L395.454 360.893L394.212 369.664L394.75 369.741L395.992 360.969Z" fill="#001B47"/>
<path id="Vector_64" d="M414.603 366.843L402.389 363.428L402.243 363.95L414.457 367.365L414.603 366.843Z" fill="#001B47"/>
<path id="Vector_65" d="M360.601 362.776C359.338 360.549 358.225 357.954 357.324 354.928C384.355 355.855 388.667 375.153 388.667 375.153C388.667 375.153 370.255 379.794 360.601 362.776Z" fill="#3E98D4"/>
<path id="Vector_66" d="M388.571 375.407C388.552 375.4 386.641 374.68 383.757 373.383C376.71 370.214 363.876 363.623 357.111 355.096L357.535 354.759C364.229 363.196 376.977 369.739 383.979 372.888C386.848 374.178 388.743 374.892 388.762 374.899L388.571 375.407Z" fill="#001B47"/>
<path id="Vector_67" d="M379.481 370.897L378.654 361.183L378.114 361.229L378.941 370.943L379.481 370.897Z" fill="#001B47"/>
<path id="Vector_68" d="M378.19 370.22L376.528 359.803L375.992 359.888L377.655 370.305L378.19 370.22Z" fill="#001B47"/>
<path id="Vector_69" d="M372.905 367.743L372.856 367.202L364.598 367.95L364.647 368.49L372.905 367.743Z" fill="#001B47"/>
<path id="Vector_70" d="M361.852 365.027L361.806 364.487C363.626 364.332 367.915 364.011 368.423 364.358L368.117 364.806L368.129 364.813C367.762 364.645 364.649 364.79 361.852 365.027Z" fill="#001B47"/>
<path id="Vector_71" d="M365.531 355.831L364.989 355.823L364.895 362.373L365.437 362.381L365.531 355.831Z" fill="#001B47"/>
<path id="Vector_72" d="M382.593 372.766L382.43 372.248L375.375 374.46L375.537 374.977L382.593 372.766Z" fill="#001B47"/>
<path id="Vector_73" d="M375.427 368.743L373.618 358.313L373.083 358.406L374.892 368.835L375.427 368.743Z" fill="#001B47"/>
<path id="Vector_74" d="M372.44 379.562C372.307 379.562 372.191 379.464 372.172 379.327C372.152 379.179 372.256 379.043 372.404 379.022L406.294 374.437C406.443 374.418 406.579 374.521 406.6 374.669C406.62 374.818 406.516 374.954 406.367 374.975L372.477 379.56C372.465 379.561 372.453 379.562 372.44 379.562Z" fill="#AC0D1A"/>
<path id="Vector_75" d="M375.712 384.135C375.579 384.135 375.463 384.036 375.444 383.9C375.424 383.752 375.528 383.615 375.677 383.595L406.961 379.362C407.108 379.342 407.246 379.446 407.266 379.594C407.287 379.743 407.183 379.88 407.035 379.9L375.75 384.133C375.736 384.134 375.724 384.135 375.712 384.135Z" fill="#AC0D1A"/>
<path id="Vector_76" d="M377.756 388.873C377.622 388.873 377.506 388.775 377.488 388.639C377.468 388.49 377.572 388.354 377.72 388.333L407.628 384.287C407.776 384.266 407.913 384.371 407.933 384.519C407.953 384.668 407.85 384.804 407.7 384.824L377.793 388.871C377.781 388.872 377.768 388.873 377.756 388.873Z" fill="#AC0D1A"/>
<path id="Vector_77" d="M380.219 393.556C380.085 393.556 379.969 393.457 379.951 393.321C379.93 393.173 380.035 393.036 380.183 393.016L408.294 389.212C408.443 389.194 408.579 389.296 408.599 389.445C408.619 389.593 408.515 389.729 408.367 389.75L380.255 393.553C380.243 393.555 380.231 393.556 380.219 393.556Z" fill="#AC0D1A"/>
<path id="Vector_78" d="M381.567 398.389C381.433 398.389 381.317 398.29 381.299 398.154C381.278 398.006 381.383 397.869 381.531 397.849L408.96 394.138C409.108 394.119 409.245 394.221 409.266 394.37C409.286 394.519 409.182 394.655 409.033 394.675L381.603 398.387C381.591 398.388 381.579 398.389 381.567 398.389Z" fill="#AC0D1A"/>
<path id="Vector_79" d="M385.174 402.916C385.041 402.916 384.925 402.817 384.906 402.681C384.886 402.533 384.99 402.396 385.139 402.376L409.627 399.063C409.776 399.043 409.911 399.147 409.932 399.295C409.952 399.443 409.848 399.58 409.7 399.6L385.211 402.914C385.199 402.915 385.187 402.916 385.174 402.916Z" fill="#AC0D1A"/>
<path id="Vector_80" d="M354.097 348.877C353.976 348.877 353.857 348.823 353.776 348.72C352.795 347.46 351.923 345.671 351.184 343.4C351.114 343.186 351.231 342.956 351.444 342.887C351.658 342.817 351.888 342.934 351.957 343.148C352.667 345.329 353.495 347.036 354.418 348.22C354.556 348.397 354.524 348.652 354.348 348.791C354.273 348.849 354.185 348.877 354.097 348.877Z" fill="#001B47"/>
<path id="Vector_81" d="M350.432 339.34C350.245 339.34 350.076 339.209 350.035 339.018C349.363 335.841 348.849 332.048 348.506 327.746C348.487 327.522 348.654 327.326 348.879 327.308C349.101 327.294 349.298 327.457 349.317 327.681C349.657 331.949 350.167 335.706 350.831 338.849C350.877 339.068 350.737 339.284 350.517 339.331C350.488 339.337 350.461 339.34 350.432 339.34Z" fill="#001B47"/>
<path id="Vector_82" d="M348.599 323.08C348.382 323.08 348.202 322.91 348.193 322.692C347.967 317.695 348.038 313.97 348.038 313.933C348.043 313.711 348.224 313.534 348.445 313.534C348.445 313.534 348.45 313.534 348.453 313.534C348.677 313.539 348.856 313.724 348.852 313.949C348.851 313.986 348.781 317.686 349.006 322.656C349.015 322.88 348.842 323.07 348.618 323.08C348.611 323.08 348.605 323.08 348.599 323.08Z" fill="#001B47"/>
<path id="Vector_83" d="M372.365 373.991C372.311 373.991 372.256 373.98 372.204 373.956C370.944 373.411 369.713 372.73 368.544 371.933C368.359 371.806 368.311 371.553 368.437 371.367C368.564 371.182 368.817 371.134 369.003 371.261C370.129 372.029 371.315 372.685 372.527 373.211C372.733 373.3 372.828 373.539 372.739 373.745C372.672 373.899 372.523 373.991 372.365 373.991Z" fill="#001B47"/>
<path id="Vector_84" d="M364.721 368.524C364.613 368.524 364.505 368.482 364.426 368.397C359.692 363.395 357.758 357.728 357.678 357.49C357.607 357.277 357.721 357.046 357.934 356.975C358.147 356.904 358.378 357.018 358.449 357.231C358.469 357.288 360.411 362.971 365.016 367.838C365.171 368 365.164 368.258 365.001 368.413C364.922 368.487 364.822 368.524 364.721 368.524Z" fill="#001B47"/>
<path id="Vector_85" d="M407.849 327.727C407.707 327.727 407.569 327.651 407.494 327.518C407.384 327.322 407.455 327.074 407.651 326.965C411.731 324.689 414.478 323.447 414.505 323.434C414.71 323.343 414.951 323.434 415.043 323.639C415.135 323.843 415.043 324.084 414.838 324.177C414.812 324.188 412.093 325.418 408.047 327.675C407.984 327.71 407.916 327.727 407.849 327.727Z" fill="#001B47"/>
<path id="Vector_86" d="M397.745 335.402C397.645 335.402 397.544 335.365 397.466 335.291C397.303 335.137 397.294 334.88 397.449 334.716C398.494 333.606 399.62 332.546 400.793 331.567C400.966 331.423 401.223 331.446 401.366 331.619C401.51 331.791 401.487 332.048 401.314 332.191C400.166 333.15 399.064 334.187 398.041 335.274C397.96 335.359 397.852 335.402 397.745 335.402Z" fill="#001B47"/>
<path id="Vector_87" d="M393.71 340.507C393.633 340.507 393.556 340.485 393.487 340.44C393.299 340.317 393.247 340.065 393.371 339.877C394.119 338.738 394.943 337.624 395.817 336.566C395.961 336.392 396.216 336.368 396.389 336.511C396.563 336.654 396.587 336.911 396.444 337.084C395.588 338.12 394.783 339.21 394.05 340.324C393.972 340.443 393.843 340.507 393.71 340.507Z" fill="#001B47"/>
<path id="Vector_88" d="M390.202 347.499C390.164 347.499 390.125 347.494 390.086 347.482C389.871 347.418 389.749 347.191 389.813 346.976C389.832 346.912 390.292 345.391 391.485 343.091C391.588 342.891 391.834 342.814 392.033 342.917C392.232 343.02 392.31 343.266 392.207 343.465C391.052 345.691 390.597 347.194 390.592 347.209C390.539 347.386 390.378 347.499 390.202 347.499Z" fill="#001B47"/>
<path id="Vector_89" d="M410.444 352.559C410.265 352.559 410.102 352.441 410.052 352.261C409.993 352.044 410.12 351.82 410.336 351.76C412.438 351.181 414.658 350.784 416.934 350.578C417.157 350.56 417.356 350.722 417.376 350.947C417.396 351.17 417.231 351.368 417.007 351.388C414.779 351.59 412.607 351.979 410.552 352.545C410.516 352.554 410.48 352.559 410.444 352.559Z" fill="#001B47"/>
<path id="Vector_90" d="M399.062 358.274C398.942 358.274 398.823 358.221 398.743 358.12C398.603 357.944 398.632 357.688 398.809 357.549C400.687 356.058 402.762 354.775 404.975 353.735C405.179 353.639 405.421 353.727 405.516 353.93C405.612 354.134 405.524 354.376 405.321 354.471C403.165 355.484 401.144 356.734 399.315 358.185C399.239 358.245 399.15 358.274 399.062 358.274Z" fill="#001B47"/>
<path id="Vector_91" d="M393.24 364.603C393.172 364.603 393.103 364.586 393.04 364.55C392.845 364.439 392.776 364.191 392.887 363.996C392.93 363.92 393.97 362.105 396.28 359.799C396.439 359.64 396.696 359.64 396.855 359.799C397.014 359.958 397.014 360.215 396.855 360.374C394.622 362.603 393.604 364.379 393.595 364.397C393.52 364.528 393.381 364.603 393.24 364.603Z" fill="#001B47"/>
</g>
<g id="Conductor">
<path id="Vector_92" d="M677.378 157.092C673.117 163.657 645.541 164.77 640.571 158.723C643.834 154.934 647.647 158.252 645.285 145.881C649.418 150.289 653.764 152.202 659.958 152.202C665.769 152.202 670.069 149.82 674.114 145.881C671.938 156.91 675.565 153.828 677.378 157.092Z" fill="white"/>
<path id="Vector 11" d="M632.018 325.833C626.651 317.13 634.254 278.932 638.727 260.922H682.424C686.776 281.289 694.718 322.787 691.671 325.833C687.864 329.641 675.534 389.113 676.078 395.64C676.622 402.168 672.271 418.849 661.935 416.673C651.6 414.497 647.793 409.602 648.337 395.64C648.881 381.679 638.727 336.712 632.018 325.833Z" fill="black" stroke="black"/>
<path id="Vector 3" d="M624.654 162.812C629.018 160.462 635.622 159.136 642.774 157.208C646.048 158.775 654.623 162.812 659.868 162.812C669.869 162.812 677.507 157.208 677.507 157.208C677.507 157.208 694.3 160.653 697.146 162.812C699.992 164.971 693.384 222.095 691.391 231.73C689.027 243.153 683.177 262.534 681.935 263.46C673.206 269.968 670.665 270.713 661.754 270.713C651.908 270.713 648.839 270.868 640.111 262.191C631.382 253.514 619.783 165.435 624.654 162.812Z" fill="#FEFFFC"/>
<path id="Vector_93" d="M685.265 120.945C682.174 126.022 682.656 128.379 681.81 131.128C680.901 131.642 680.178 131.15 679.992 131.128C677.801 143.748 669.263 155.758 659.807 157.933C650.715 155.214 640.683 143.811 638.531 131.128C638.089 131.241 637.18 131.128 636.713 131.128C635.986 126.384 636.167 126.022 633.076 121.489C631.621 116.593 631.756 115.093 635.509 115.093C635.828 115.093 638.222 115.039 638.531 115.093C639.307 93.5155 647.247 90.1207 659.49 90.1207C671.719 90.1207 679.202 93.5844 679.992 115.093C680.037 115.087 682.612 115.093 682.656 115.093C686.408 115.093 685.265 115.686 685.265 120.945Z" fill="#EDE8C1"/>
<path id="Vector_94" d="M679.337 116.971C682.587 111.928 683.873 108.419 688.249 103.475C691.68 99.5986 695.149 97.1946 691.585 91.729C687.192 84.9907 679.424 81.7582 673.038 86.7938C673.052 82.0944 673.737 75.8622 668.947 72.7904C663.429 69.2532 656.851 73.4825 651.882 75.4555C643.246 78.8851 641.567 73.4956 635.048 69.6067C628.967 65.9773 623.86 68.2613 624.645 78.874C612.31 76.8092 615.809 88.159 616.71 94.1097C617.913 102.051 622.711 100.456 624.336 102.424C626.9 102.904 629.577 102.367 630.168 105.423C630.564 107.469 627.189 109.667 628.429 111.53C630.058 113.977 632.154 110.906 633.633 111.713C635.181 112.567 638.319 115.339 638.532 116.774C638.895 114.961 638.713 105.423 642.383 105.319C646.365 107.399 644.856 99.0272 649.318 99.2286C657.087 99.5786 661.04 103 664.924 103.949C670.08 105.208 672.686 100.942 676.071 103.654C678.779 105.823 678.598 113.388 679.337 116.971Z" fill="#001B47"/>
<path id="Vector_95" d="M646.923 132.519C641.387 132.519 636.884 128.028 636.884 122.509C636.884 116.99 641.387 112.5 646.923 112.5C652.459 112.5 656.962 116.99 656.962 122.509C656.962 128.028 652.459 132.519 646.923 132.519ZM646.923 113.967C642.198 113.967 638.356 117.799 638.356 122.509C638.356 127.22 642.198 131.051 646.923 131.051C651.647 131.051 655.49 127.22 655.49 122.509C655.49 117.799 651.647 113.967 646.923 113.967Z" fill="#A60F06"/>
<path id="Vector_96" d="M670.964 132.519C665.428 132.519 660.924 128.028 660.924 122.509C660.924 116.99 665.428 112.5 670.964 112.5C676.499 112.5 681.003 116.99 681.003 122.509C681.003 128.028 676.499 132.519 670.964 132.519ZM670.964 113.967C666.239 113.967 662.396 117.799 662.396 122.509C662.396 127.22 666.239 131.051 670.964 131.051C675.688 131.051 679.531 127.22 679.531 122.509C679.531 117.799 675.688 113.967 670.964 113.967Z" fill="#A60F06"/>
<path id="Vector_97" d="M661.659 123.243C661.524 123.243 661.387 123.205 661.264 123.128C659.905 122.261 657.346 122.886 656.476 123.2C656.097 123.336 655.673 123.14 655.535 122.759C655.396 122.378 655.593 121.958 655.974 121.82C656.13 121.764 659.806 120.457 662.056 121.892C662.399 122.11 662.499 122.564 662.28 122.904C662.139 123.123 661.902 123.243 661.659 123.243Z" fill="#A60F06"/>
<path id="Vector 5" d="M667.737 516.035L663.385 501.892C683.024 503.282 723.83 504.83 725.576 512.227C727.322 519.625 724.849 523.409 723.394 524.376L671.932 512.227L667.737 516.035Z" fill="black"/>
<path id="Vector 6" d="M659.941 516.398L663.804 502.074C644.165 503.464 603.359 505.011 601.613 512.409C599.868 519.806 602.341 523.59 603.795 524.557L655.257 512.409L659.941 516.398Z" fill="black"/>
<path id="Vector 9" d="M624.947 162.104L642.534 157.389C633.106 163.554 661.573 256.57 649.243 238.62C644.482 231.688 639.452 255.784 638.908 261.284C633.287 246.779 628.138 216.68 627.848 215.23C627.558 213.779 624.221 192.565 623.859 180.961L624.947 162.104Z" fill="#020202" stroke="black"/>
<path id="Vector 10" d="M697.655 161.741L676.874 156.845C686.302 163.01 657.835 256.026 670.165 238.076C674.926 231.144 682.062 255.24 682.606 260.74C690.946 243.696 693.195 216.861 693.485 215.411C693.775 213.96 697.292 192.746 697.655 181.142V161.741Z" fill="#020202" stroke="black"/>
<path id="Ellipse 1" d="M663.748 163.192C663.748 165.094 662.206 166.637 660.303 166.637C658.401 166.637 656.858 165.094 656.858 163.192C656.858 161.289 658.401 159.747 660.303 159.747C662.206 159.747 663.748 161.289 663.748 163.192Z" fill="black"/>
<path id="Ellipse 2" d="M674.084 163.031C673.54 164.79 672.398 166.114 670.095 166.114C667.792 166.114 663.386 164.56 663.386 163.031C663.386 161.707 667.792 160.243 670.095 160.243C672.398 160.243 673.177 160.801 674.084 163.031Z" fill="black"/>
<path id="Ellipse 3" d="M646.342 163.26C646.886 165.019 648.028 166.343 650.331 166.343C652.634 166.343 657.04 164.789 657.04 163.26C657.04 161.936 652.634 160.472 650.331 160.472C648.028 160.472 647.249 161.03 646.342 163.26Z" fill="black"/>
<path id="Vector 4" d="M661.386 269.489C655.865 269.489 644.773 264.864 639.09 261.647C644.59 270.293 663.586 521.163 663.586 502.128C663.586 484.031 673.493 314.58 683.15 260.559C678.199 262.57 668.17 269.489 661.386 269.489Z" fill="#282727"/>
<g id="hand-left">
<path id="Vector 13" d="M836.363 221.335C835.487 223.011 831.642 224.443 829.829 224.95L825.1 223.279C824.697 222.101 823.723 219.255 823.061 217.303C822.4 215.35 824.066 214.439 824.983 214.227L834.342 210.88C838.128 211.321 837.458 219.24 836.363 221.335Z" fill="#E2DDB5"/>
<g id="Vector 14">
<path d="M687.631 178.329C687.631 178.329 692.56 167.225 696.592 166.635C700.623 166.044 745.436 217.837 785.665 225.621C779.166 225.513 755.342 221.086 747.296 219.101C738.378 216.901 704.384 193.768 687.631 178.329Z" fill="black"/>
<path d="M823.974 220.211C800.979 230.243 792.972 227.035 785.665 225.621M785.665 225.621C745.436 217.837 700.623 166.044 696.592 166.635C692.56 167.225 687.631 178.329 687.631 178.329C704.384 193.768 738.378 216.901 747.296 219.101C755.342 221.086 779.166 225.513 785.665 225.621Z" stroke="black" stroke-width="10"/>
</g>
</g>
<g id="hand-right">
<path id="Line 1" d="M491.687 214.003L426.886 151.147" stroke="black" stroke-width="4"/>
<path id="Vector 15" d="M488.643 220.253C489.506 221.935 493.34 223.397 495.149 223.917L499.89 222.283C500.303 221.107 501.298 218.269 501.975 216.322C502.651 214.374 500.991 213.45 500.077 213.232L490.744 209.813C486.954 210.225 487.564 218.149 488.643 220.253Z" fill="#E2DDB5"/>
<g id="Vector 16">
<path d="M630.683 177.264C630.683 177.264 635.602 167.836 628.224 166.197C620.845 164.557 579.593 217.448 539.306 224.925C545.806 224.866 569.663 220.621 577.724 218.697C586.658 216.565 613.813 192.575 630.683 177.264Z" fill="black"/>
<path d="M501.04 219.223C523.957 229.43 531.988 226.283 539.306 224.925M539.306 224.925C579.593 217.448 620.845 164.557 628.224 166.197C635.602 167.836 630.683 177.264 630.683 177.264C613.813 192.575 586.658 216.565 577.724 218.697C569.663 220.621 545.806 224.866 539.306 224.925Z" stroke="black" stroke-width="10"/>
</g>
</g>
</g>
<g id="Audience">
<path id="Vector_98" d="M581.699 364.464C580.614 361.004 578.146 357.831 574.732 356.661C571.318 355.492 566.32 357.273 563.754 359.832C559.059 364.511 557.914 380.588 561.139 385.668C561.78 385.634 563.994 385.609 564.643 385.585L565.562 382.523V385.554C566.596 385.522 567.638 385.5 568.689 385.488C572.211 385.444 575.58 384.036 578.086 381.56C580.592 379.084 582.04 375.732 582.127 372.21C582.211 368.84 582.127 365.828 581.699 364.464Z" fill="#2F2E41"/>
<path id="Vector_99" d="M569.827 375.877C565.621 375.877 562.211 372.548 562.211 368.443C562.211 364.337 565.621 361.009 569.827 361.009C574.032 361.009 577.442 364.337 577.442 368.443C577.442 372.548 574.032 375.877 569.827 375.877Z" fill="#C6BE7F"/>
<path id="Vector_100" d="M576.354 361.946L567.706 357.745C565.937 358.518 564.415 359.736 563.295 361.272C562.176 362.808 561.5 364.607 561.339 366.482L561.123 368.987L564.745 368.092L565.142 364.889L565.757 367.843L567.428 367.43L567.412 362.457L569.084 367.426L575.054 366.096L576.354 361.946Z" fill="#2F2E41"/>
<g id="aud7">
<path id="Vector_101" d="M453.91 356.318V356.318L454.04 356.553C452.888 353.699 453.935 350.182 455.99 348.03C458.044 345.878 460.9 344.894 463.713 344.503C465.8 344.214 467.967 344.222 469.952 344.991C472.827 346.105 475.023 348.682 476.857 351.364C477.696 352.591 478.52 353.989 478.437 355.522C478.359 356.945 477.519 358.152 476.832 359.359C476.144 360.566 475.57 362.064 476.063 363.381C476.357 364.166 476.979 364.732 477.483 365.374C477.988 366.016 478.403 366.884 478.159 367.69C478.051 367.998 477.865 368.273 477.62 368.487C477.374 368.702 477.078 368.849 476.759 368.913C476.149 369.056 475.517 368.963 474.899 368.869L458.869 366.434C457.78 366.268 456.747 365.84 455.857 365.186C454.968 364.532 454.249 363.672 453.762 362.678C453.275 361.685 453.034 360.588 453.06 359.48C453.086 358.373 453.378 357.288 453.91 356.318V356.318Z" fill="#2F2E41"/>
<path id="Vector_102" d="M458.034 359.561C457.339 355.277 460.248 351.241 464.532 350.545C468.816 349.85 472.852 352.759 473.547 357.043C474.242 361.327 471.333 365.364 467.049 366.059C462.765 366.754 458.729 363.845 458.034 359.561Z" fill="#C6BE7F"/>
<path id="Vector_103" d="M444.718 379.679C449.298 384.837 455.744 388.006 462.664 388.501C469.585 388.996 476.424 386.778 481.706 382.324L479.439 376.061C478.926 374.949 478.117 373.996 477.099 373.304C476.081 372.612 474.892 372.207 473.659 372.133L472.216 372.045L468.776 369.109C468.776 369.109 459.507 368.781 459.645 368.624L454.031 371.967L454.035 371.944L451.828 372.078C450.595 372.151 449.406 372.556 448.387 373.248C447.369 373.94 446.561 374.893 446.048 376.006L444.718 379.679Z" fill="#6C63FF"/>
<path id="Vector_104" d="M458.166 351.123C458.37 350.062 459.468 349.576 460.409 349.341C463.138 348.654 465.977 348.5 468.767 348.888C470.8 349.174 472.881 349.804 474.357 351.37C475.546 352.687 476.22 354.38 476.258 356.144C476.318 357.199 476.079 358.25 475.568 359.178C475.037 360.064 474.132 360.707 473.198 360.684L473.103 361.009C469.144 360.465 465.466 358.036 463.15 354.435C463.585 355.965 464.45 357.343 465.646 358.41C462.973 357.355 460.649 355.589 458.934 353.309C458.466 352.696 458.011 351.931 458.166 351.123Z" fill="#2F2E41"/>
</g>
<path id="Vector_105" d="M549.882 390.557C554.417 395.716 560.8 398.885 567.653 399.38C574.505 399.875 581.277 397.656 586.508 393.203L584.262 386.94C583.755 385.828 582.954 384.875 581.946 384.182C580.938 383.49 579.76 383.086 578.539 383.012L577.111 382.924L573.704 379.988C573.704 379.988 564.527 379.66 564.663 379.503L559.103 382.846L559.108 382.823L556.923 382.956C555.702 383.03 554.524 383.435 553.516 384.127C552.507 384.819 551.707 385.772 551.199 386.885L549.882 390.557Z" fill="#8E9370"/>
<g id="aud1">
<path id="Vector_106" d="M539.909 323.295C535.203 323.295 531.387 319.479 531.387 314.773C531.387 310.066 535.203 306.251 539.909 306.251C544.616 306.251 548.431 310.066 548.431 314.773C548.431 319.479 544.616 323.295 539.909 323.295Z" fill="#E2DDB5"/>
<path id="bf427902-b9bf-4946-b5d7-5c1c7e04535e" d="M532.456 309.214C532.456 309.214 530.241 304.934 535.114 304.545C535.114 304.545 539.268 300.735 543.503 303.848C543.503 303.848 545.812 303.848 547.075 306.49C547.075 306.49 548.892 305.794 549.291 307.658C549.291 307.658 550.62 311.549 549.291 315.052C547.962 318.554 547.52 318.943 547.52 318.943C547.52 318.943 548.453 314.597 543.136 314.208C537.82 313.819 532.943 310.452 532.5 314.732C532.057 319.013 531.57 317.079 531.57 317.079C531.57 317.079 527.361 310.966 532.456 309.214Z" fill="#2F2E41"/>
<path id="Vector_107" d="M521.596 338.338C526.131 343.497 532.514 346.666 539.367 347.161C546.219 347.656 552.992 345.437 558.222 340.984L555.977 334.721C555.469 333.609 554.669 332.655 553.66 331.963C552.652 331.271 551.474 330.866 550.254 330.792L548.825 330.705L545.419 327.768C545.419 327.768 536.241 327.441 536.377 327.284L530.818 330.626L530.822 330.603L528.637 330.737C527.416 330.811 526.238 331.215 525.23 331.907C524.222 332.599 523.421 333.553 522.914 334.666L521.596 338.338Z" fill="#AC0D1A"/>
</g>
<g id="aud3">
<path id="ab6171fa-7d69-4734-b81c-8dff60f9761b" d="M478.805 419.03C474.399 419.03 470.827 415.459 470.827 411.052C470.827 406.646 474.399 403.074 478.805 403.074C483.211 403.074 486.783 406.646 486.783 411.052C486.783 415.459 483.211 419.03 478.805 419.03Z" fill="#C6BE7F"/>
<path id="Vector_108" d="M458.86 433.549C463.396 438.802 469.779 442.028 476.631 442.532C483.484 443.036 490.256 440.777 495.487 436.243L493.241 429.867C492.734 428.734 491.933 427.763 490.925 427.059C489.916 426.354 488.739 425.942 487.518 425.867L486.089 425.777L482.683 422.787C482.683 422.787 473.505 422.454 473.642 422.294L468.082 425.697L468.087 425.674L465.901 425.81C464.68 425.885 463.503 426.297 462.494 427.002C461.486 427.706 460.685 428.677 460.178 429.81L458.86 433.549Z" fill="#55A630"/>
<path id="Vector_109" d="M469.381 408.308C469.421 407.502 469.631 406.713 469.996 405.994C470.362 405.276 470.874 404.643 471.5 404.138C471.96 403.772 472.492 403.462 472.797 402.958C472.97 402.601 473.118 402.231 473.237 401.852C473.843 400.4 475.57 399.628 477.119 399.848C478.669 400.068 480.009 401.117 480.912 402.403C481.357 402.188 481.854 402.107 482.344 402.167C482.833 402.228 483.295 402.429 483.675 402.746C484.055 403.063 484.337 403.483 484.487 403.956C484.637 404.429 484.649 404.936 484.522 405.416C485.325 404.765 486.622 405.285 487.123 406.192C487.624 407.098 487.544 408.207 487.396 409.233C487.126 411.088 486.677 412.912 486.054 414.679C485.273 413.986 485.321 412.725 485.416 411.659C485.516 410.551 485.456 409.199 484.494 408.653C483.565 408.125 482.437 408.704 481.412 409.004C480.602 409.235 479.751 409.287 478.919 409.155C478.088 409.023 477.294 408.711 476.593 408.241C476.059 407.877 475.584 407.422 475.009 407.13C474.433 406.837 473.701 406.736 473.165 407.097C472.676 407.426 472.477 408.041 472.31 408.609C471.916 409.956 471.521 411.303 471.127 412.65C470.548 412.092 470.092 411.416 469.791 410.668C469.491 409.919 469.351 409.115 469.381 408.308V408.308Z" fill="#2F2E41"/>
</g>
<path id="Vector_110" d="M771.814 336.35C773.617 336.35 775.078 334.807 775.078 332.905C775.078 331.002 773.617 329.46 771.814 329.46C770.012 329.46 768.55 331.002 768.55 332.905C768.55 334.807 770.012 336.35 771.814 336.35Z" fill="#2F2E41"/>
<path id="Vector_111" d="M776.891 349.042C781.297 349.042 784.869 345.226 784.869 340.52C784.869 335.813 781.297 331.998 776.891 331.998C772.485 331.998 768.913 335.813 768.913 340.52C768.913 345.226 772.485 349.042 776.891 349.042Z" fill="#2F2E41"/>
<path id="Vector_112" d="M777.435 349.042C781.14 349.042 784.144 345.876 784.144 341.97C784.144 338.065 781.14 334.899 777.435 334.899C773.73 334.899 770.727 338.065 770.727 341.97C770.727 345.876 773.73 349.042 777.435 349.042Z" fill="#C6BE7F"/>
<path id="Vector_113" d="M781.67 334.971C780.533 334.231 779.23 333.831 777.898 333.812C776.565 333.793 775.253 334.157 774.098 334.865C772.942 335.573 771.986 336.599 771.33 337.837C770.673 339.074 770.34 340.478 770.365 341.9C773.673 342.786 777.148 343.465 780.675 342.112L781.508 339.935L781.999 342.113C783.074 342.582 784.151 342.979 785.228 342.109C785.272 340.691 784.966 339.285 784.342 338.033C783.718 336.78 782.796 335.725 781.67 334.971Z" fill="#2F2E41"/>
<path id="Vector_114" d="M768.774 323.854C766.554 322.791 763.769 323.29 761.921 324.957C760.073 326.624 759.194 329.338 759.551 331.861C759.915 334.436 761.413 336.652 762.794 338.818C764.175 340.984 765.524 343.357 765.522 345.96C765.521 347.834 764.809 349.632 763.541 350.958C762.273 352.284 760.554 353.031 758.76 353.035C760.865 353.982 763.063 354.947 765.353 354.835C767.643 354.723 770.044 353.185 770.417 350.822C770.686 349.119 769.887 347.459 769.22 345.88C768.134 343.307 767.348 340.607 766.881 337.838C766.659 336.516 766.514 335.127 766.926 333.856C767.254 332.914 767.864 332.108 768.664 331.555C769.465 331.003 770.414 330.734 771.372 330.787L772.129 330.076C772.466 327.55 770.993 324.917 768.774 323.854Z" fill="#2F2E41"/>
<path id="Vector_115" d="M789.039 306.976C793.145 306.976 796.473 303.486 796.473 299.18C796.473 294.874 793.145 291.383 789.039 291.383C784.934 291.383 781.605 294.874 781.605 299.18C781.605 303.486 784.934 306.976 789.039 306.976Z" fill="#E2DDB5"/>
<path id="bf427902-b9bf-4946-b5d7-5c1c7e04535e_2" d="M795.679 294.123C795.679 294.123 797.652 290.223 793.311 289.869C793.311 289.869 789.61 286.398 785.838 289.234C785.838 289.234 783.78 289.234 782.655 291.641C782.655 291.641 781.036 291.007 780.681 292.705C780.681 292.705 779.497 296.251 780.681 299.442C781.865 302.633 782.258 302.987 782.258 302.987C782.258 302.987 781.428 299.027 786.164 298.673C790.9 298.318 795.246 295.251 795.64 299.151C796.035 303.051 796.469 301.289 796.469 301.289C796.469 301.289 800.218 295.719 795.679 294.123Z" fill="#2F2E41"/>
<path id="Vector_116" d="M795.023 361.105C791.071 365.889 785.51 368.827 779.539 369.286C773.569 369.745 767.668 367.688 763.111 363.559L765.067 357.751C765.509 356.72 766.207 355.836 767.086 355.194C767.964 354.552 768.99 354.177 770.054 354.109L771.298 354.027L774.266 351.304C774.266 351.304 782.263 351.001 782.144 350.855L786.988 353.955L786.984 353.933L788.888 354.057C789.952 354.126 790.978 354.501 791.857 355.142C792.735 355.784 793.433 356.668 793.875 357.7L795.023 361.105Z" fill="#A60F06"/>
<g id="aud11">
<path id="Vector_117" d="M723.25 290.506C724.18 287.345 726.296 284.446 729.222 283.377C732.148 282.309 736.432 283.937 738.632 286.274C742.656 290.549 743.638 305.236 740.873 309.877C740.324 309.846 738.426 309.823 737.87 309.801L737.082 307.004V309.774C736.196 309.744 735.302 309.724 734.402 309.713C731.383 309.673 728.495 308.387 726.347 306.125C724.199 303.862 722.958 300.8 722.883 297.582C722.811 294.504 722.883 291.752 723.25 290.506Z" fill="#2F2E41"/>
<path id="Vector_118" d="M733.375 300.811C736.98 300.811 739.902 297.808 739.902 294.103C739.902 290.398 736.98 287.394 733.375 287.394C729.77 287.394 726.847 290.398 726.847 294.103C726.847 297.808 729.77 300.811 733.375 300.811Z" fill="#C6BE7F"/>
<path id="Vector_119" d="M727.573 288.06L735.192 284.13C736.749 284.853 738.091 285.992 739.077 287.43C740.063 288.867 740.658 290.55 740.8 292.303L740.99 294.647L737.8 293.81L737.45 290.814L736.909 293.576L735.436 293.19L735.45 288.539L733.977 293.187L728.718 291.942L727.573 288.06Z" fill="#2F2E41"/>
<path id="Vector_120" d="M750.419 314.125C746.512 318.814 741.014 321.695 735.111 322.145C729.209 322.595 723.375 320.578 718.87 316.53L720.804 310.836C721.241 309.825 721.931 308.958 722.799 308.329C723.668 307.7 724.682 307.332 725.734 307.265L726.964 307.185L729.898 304.516C729.898 304.516 737.804 304.218 737.687 304.075L742.475 307.114L742.471 307.093L744.354 307.215C745.406 307.281 746.42 307.649 747.289 308.278C748.157 308.908 748.847 309.775 749.284 310.786L750.419 314.125Z" fill="#052A62"/>
</g>
<g id="aud10">
<path id="Vector_121" d="M693.151 401.11C694.082 397.949 696.197 395.05 699.123 393.981C702.049 392.912 706.334 394.54 708.534 396.877C712.557 401.153 713.539 415.84 710.775 420.481C710.225 420.45 708.328 420.427 707.771 420.405L706.984 417.607V420.377C706.097 420.348 705.204 420.328 704.303 420.317C701.284 420.277 698.397 418.99 696.249 416.728C694.101 414.466 692.859 411.404 692.785 408.186C692.713 405.107 692.785 402.355 693.151 401.11Z" fill="#2F2E41"/>
<path id="Vector_122" d="M703.276 411.415C706.881 411.415 709.803 408.411 709.803 404.706C709.803 401.001 706.881 397.998 703.276 397.998C699.671 397.998 696.749 401.001 696.749 404.706C696.749 408.411 699.671 411.415 703.276 411.415Z" fill="#C6BE7F"/>
<path id="Vector_123" d="M697.474 398.664L705.093 394.734C706.65 395.457 707.992 396.596 708.978 398.033C709.964 399.47 710.559 401.153 710.701 402.907L710.891 405.25L707.701 404.414L707.351 401.417L706.81 404.18L705.337 403.794L705.351 399.142L703.878 403.791L698.619 402.546L697.474 398.664Z" fill="#2F2E41"/>
<path id="Vector_124" d="M720.32 424.728C716.413 429.418 710.915 432.299 705.012 432.749C699.11 433.199 693.276 431.182 688.771 427.134L690.705 421.44C691.142 420.429 691.832 419.562 692.7 418.933C693.569 418.304 694.583 417.936 695.635 417.868L696.865 417.789L699.799 415.119C699.799 415.119 707.705 414.821 707.588 414.679L712.377 417.717L712.373 417.697L714.255 417.818C715.307 417.885 716.321 418.253 717.19 418.882C718.058 419.511 718.748 420.378 719.185 421.39L720.32 424.728Z" fill="#052A62"/>
</g>
<g id="aud12">
<path id="Vector_125" d="M841.832 329.57C842.762 326.452 844.878 323.592 847.804 322.537C850.73 321.483 855.014 323.089 857.214 325.395C861.237 329.612 862.219 344.101 859.455 348.679C858.905 348.649 857.008 348.626 856.451 348.604L855.664 345.844V348.577C854.777 348.548 853.884 348.528 852.983 348.517C849.964 348.478 847.077 347.209 844.929 344.977C842.781 342.745 841.539 339.725 841.465 336.55C841.393 333.513 841.465 330.799 841.832 329.57Z" fill="#2F2E41"/>
<path id="Vector_126" d="M851.775 339.976C855.28 339.976 858.121 336.891 858.121 333.086C858.121 329.281 855.28 326.196 851.775 326.196C848.27 326.196 845.429 329.281 845.429 333.086C845.429 336.891 848.27 339.976 851.775 339.976Z" fill="#C6BE7F"/>
<path id="Vector_127" d="M846.517 327.089L853.93 323.295C855.446 323.993 856.751 325.093 857.71 326.48C858.67 327.868 859.249 329.493 859.387 331.186L859.572 333.449L856.468 332.641L856.128 329.748L855.601 332.415L854.168 332.043L854.182 327.551L852.748 332.039L847.632 330.838L846.517 327.089Z" fill="#2F2E41"/>
<path id="Vector_128" d="M869 352.926C865.093 357.616 859.595 360.497 853.693 360.947C847.79 361.397 841.956 359.38 837.451 355.332L839.385 349.638C839.822 348.627 840.512 347.76 841.38 347.131C842.249 346.502 843.263 346.134 844.315 346.067L845.545 345.987L848.48 343.317C848.48 343.317 856.385 343.02 856.268 342.877L861.057 345.916L861.053 345.895L862.935 346.016C863.987 346.083 865.001 346.451 865.87 347.08C866.738 347.709 867.428 348.576 867.865 349.588L869 352.926Z" fill="#A60F06"/>
</g>
<path id="Vector_129" d="M804.814 320.289C800.907 324.979 795.409 327.86 789.507 328.31C783.604 328.76 777.77 326.743 773.265 322.695L775.199 317.001C775.636 315.99 776.326 315.123 777.194 314.494C778.063 313.865 779.077 313.497 780.129 313.43L781.359 313.35L784.293 310.68C784.293 310.68 792.199 310.383 792.082 310.24L796.871 313.279L796.867 313.258L798.749 313.379C799.801 313.446 800.815 313.814 801.684 314.443C802.552 315.072 803.242 315.939 803.679 316.951L804.814 320.289Z" fill="#C5A810"/>
<path id="Vector_130" d="M838.358 383.129C842.464 383.129 845.792 379.639 845.792 375.333C845.792 371.027 842.464 367.536 838.358 367.536C834.252 367.536 830.924 371.027 830.924 375.333C830.924 379.639 834.252 383.129 838.358 383.129Z" fill="#E2DDB5"/>
<path id="bf427902-b9bf-4946-b5d7-5c1c7e04535e_3" d="M844.998 370.277C844.998 370.277 846.971 366.377 842.63 366.022C842.63 366.022 838.929 362.551 835.156 365.387C835.156 365.387 833.099 365.387 831.973 367.795C831.973 367.795 830.355 367.16 829.999 368.858C829.999 368.858 828.815 372.404 829.999 375.595C831.184 378.786 831.577 379.141 831.577 379.141C831.577 379.141 830.746 375.181 835.483 374.826C840.219 374.472 844.564 371.404 844.959 375.304C845.354 379.204 845.787 377.442 845.787 377.442C845.787 377.442 849.537 371.872 844.998 370.277Z" fill="#2F2E41"/>
<path id="Vector_131" d="M854.132 396.443C850.225 401.132 844.727 404.013 838.825 404.463C832.922 404.913 827.088 402.896 822.583 398.848L824.517 393.154C824.954 392.143 825.644 391.276 826.513 390.647C827.381 390.018 828.395 389.65 829.447 389.583L830.678 389.503L833.612 386.834C833.612 386.834 841.517 386.536 841.4 386.393L846.189 389.432L846.185 389.411L848.067 389.533C849.119 389.6 850.134 389.967 851.002 390.597C851.871 391.226 852.56 392.093 852.997 393.104L854.132 396.443Z" fill="#6C63FF"/>
<path id="Vector_132" d="M795.024 380.229C794.982 380.109 794.945 379.987 794.905 379.866C794.824 379.941 794.747 380.018 794.66 380.088L795.024 380.229Z" fill="#2F2E41"/>
<g id="aud8">
<path id="Vector_133" d="M543.721 413.426C541.754 413.801 539.855 412.509 539.48 410.542C539.106 408.575 540.397 406.676 542.364 406.301C544.332 405.927 546.23 407.218 546.605 409.185C546.98 411.153 545.688 413.051 543.721 413.426Z" fill="#2F2E41"/>
<path id="Vector_134" d="M540.667 428.404C535.552 429.379 530.615 426.022 529.641 420.906C528.667 415.791 532.024 410.855 537.139 409.88C542.255 408.906 547.191 412.263 548.165 417.378C549.14 422.494 545.782 427.43 540.667 428.404Z" fill="#2F2E41"/>
<path id="Vector_135" d="M539.955 428.54C535.823 429.327 531.836 426.616 531.049 422.484C530.262 418.352 532.974 414.365 537.105 413.578C541.237 412.792 545.224 415.503 546.011 419.635C546.798 423.766 544.086 427.753 539.955 428.54Z" fill="#C6BE7F"/>
<path id="Vector_136" d="M531.911 414.414C533.064 413.35 534.479 412.624 536.007 412.312C537.535 411.999 539.12 412.112 540.597 412.638C542.075 413.164 543.389 414.084 544.404 415.302C545.418 416.519 546.095 417.99 546.364 419.56C542.746 421.26 538.892 422.768 534.551 422.052L533.137 419.839L533.029 422.344C531.892 423.095 530.736 423.767 529.315 423.046C528.967 421.495 529.024 419.882 529.48 418.367C529.935 416.852 530.774 415.489 531.911 414.414Z" fill="#2F2E41"/>
<path id="Vector_137" d="M544.72 399.467C547.034 397.832 550.317 397.767 552.771 399.173C555.225 400.578 556.788 403.328 556.902 406.141C557.018 409.011 555.765 411.74 554.636 414.388C553.506 417.035 552.456 419.901 552.995 422.722C553.383 424.753 554.568 426.547 556.289 427.709C558.01 428.871 560.127 429.306 562.176 428.92C559.968 430.405 557.658 431.929 555.02 432.306C552.383 432.682 549.325 431.537 548.411 429.056C547.752 427.269 548.322 425.296 548.757 423.439C549.466 420.414 549.805 417.317 549.767 414.214C549.748 412.733 549.627 411.195 548.894 409.907C548.325 408.957 547.462 408.216 546.434 407.791C545.406 407.366 544.267 407.281 543.184 407.548L542.174 406.941C541.268 404.276 542.405 401.102 544.72 399.467Z" fill="#2F2E41"/>
<path id="Vector_138" d="M522.481 445.336C527.901 449.555 534.765 451.474 541.589 450.678C548.413 449.882 554.651 446.436 558.955 441.083L555.578 435.351C554.871 434.353 553.906 433.566 552.786 433.075C551.667 432.584 550.434 432.406 549.221 432.562L547.801 432.743L543.906 430.496C543.906 430.496 534.829 431.891 534.933 431.711L530.097 436.035L530.097 436.012L527.976 436.552C526.79 436.853 525.709 437.47 524.848 438.339C523.987 439.207 523.378 440.294 523.088 441.482L522.481 445.336Z" fill="#A60F06"/>
</g>
<path id="Vector_139" d="M510.623 318.047C509.537 314.587 507.069 311.414 503.655 310.244C500.242 309.074 495.243 310.856 492.677 313.415C487.983 318.094 486.837 334.17 490.062 339.251C490.704 339.217 492.917 339.192 493.566 339.167L494.485 336.105V339.137C495.519 339.105 496.562 339.083 497.612 339.071C501.135 339.027 504.503 337.619 507.009 335.143C509.515 332.667 510.964 329.315 511.05 325.793C511.134 322.423 511.05 319.411 510.623 318.047Z" fill="#2F2E41"/>
<path id="Vector_140" d="M498.932 329.822C494.826 329.822 491.498 326.413 491.498 322.207C491.498 318.001 494.826 314.592 498.932 314.592C503.037 314.592 506.366 318.001 506.366 322.207C506.366 326.413 503.037 329.822 498.932 329.822Z" fill="#C6BE7F"/>
<path id="Vector_141" d="M479.168 344.14C483.703 349.299 490.086 352.468 496.939 352.963C503.791 353.458 510.564 351.239 515.794 346.786L513.549 340.523C513.041 339.411 512.24 338.457 511.232 337.765C510.224 337.073 509.046 336.669 507.825 336.595L506.397 336.507L502.991 333.57C502.991 333.57 493.813 333.243 493.949 333.086L488.39 336.429L488.394 336.405L486.209 336.539C484.988 336.613 483.81 337.017 482.802 337.71C481.793 338.402 480.993 339.355 480.486 340.468L479.168 344.14Z" fill="#C5A810"/>
<path id="Vector_142" d="M751.489 385.545V385.545L751.376 385.756C752.38 383.195 751.467 380.04 749.677 378.11C747.887 376.179 745.398 375.297 742.947 374.947C741.128 374.687 739.24 374.694 737.51 375.384C735.005 376.383 733.091 378.695 731.493 381.101C730.762 382.201 730.043 383.456 730.116 384.831C730.184 386.107 730.916 387.19 731.515 388.273C732.114 389.356 732.615 390.699 732.185 391.881C731.928 392.585 731.387 393.092 730.947 393.669C730.507 394.245 730.146 395.023 730.358 395.746C730.452 396.023 730.614 396.269 730.828 396.462C731.042 396.654 731.3 396.786 731.578 396.844C732.11 396.972 732.661 396.888 733.199 396.804L747.168 394.619C748.117 394.471 749.018 394.087 749.792 393.5C750.567 392.914 751.194 392.142 751.618 391.251C752.043 390.359 752.253 389.375 752.23 388.382C752.208 387.388 751.953 386.415 751.489 385.545V385.545Z" fill="#2F2E41"/>
<path id="Vector_143" d="M747.79 388.574C748.39 384.688 745.88 381.026 742.184 380.395C738.488 379.765 735.006 382.404 734.406 386.29C733.807 390.176 736.316 393.838 740.012 394.469C743.708 395.099 747.191 392.46 747.79 388.574Z" fill="#C6BE7F"/>
<path id="Vector_144" d="M759.122 406.959C755.215 411.649 749.717 414.529 743.814 414.979C737.912 415.429 732.078 413.413 727.573 409.364L729.507 403.671C729.944 402.659 730.634 401.793 731.502 401.164C732.371 400.534 733.385 400.167 734.437 400.099L735.667 400.02L738.601 397.35C738.601 397.35 746.507 397.052 746.39 396.91L751.179 399.948L751.175 399.927L753.057 400.049C754.109 400.116 755.123 400.484 755.992 401.113C756.86 401.742 757.55 402.609 757.987 403.62L759.122 406.959Z" fill="#C5A810"/>
<path id="Vector_145" d="M747.491 381.007C747.316 380.038 746.372 379.595 745.562 379.381C743.215 378.755 740.773 378.615 738.375 378.968C736.626 379.229 734.836 379.804 733.567 381.231C732.544 382.432 731.964 383.976 731.932 385.584C731.88 386.546 732.086 387.504 732.526 388.35C732.982 389.158 733.76 389.744 734.564 389.724L734.645 390.02C738.05 389.524 741.213 387.309 743.205 384.025C742.831 385.421 742.087 386.678 741.059 387.65C743.357 386.688 745.355 385.078 746.83 382.999C747.233 382.44 747.624 381.743 747.491 381.007Z" fill="#2F2E41"/>
<g id="aud4">
<path id="Vector_146" d="M816.949 292.883C816.64 294.642 816.133 296.355 815.438 297.986C811.461 306.887 822.787 303.986 826.834 303.986C831.259 303.986 835.493 306.448 834.846 295.509C834.57 290.836 831.259 287.031 826.834 287.031C823.054 287.031 817.74 288.809 816.949 292.883Z" fill="#2F2E41"/>
<path id="Vector_147" d="M826.209 304.075C829.814 304.075 832.737 300.99 832.737 297.185C832.737 293.38 829.814 290.295 826.209 290.295C822.604 290.295 819.682 293.38 819.682 297.185C819.682 300.99 822.604 304.075 826.209 304.075Z" fill="#EDE8C1"/>
<path id="Vector_148" d="M821.792 290.005C822.93 289.265 824.233 288.864 825.565 288.845C826.897 288.827 828.209 289.19 829.365 289.898C830.52 290.606 831.476 291.633 832.133 292.87C832.789 294.108 833.123 295.511 833.097 296.933C829.79 297.82 826.315 298.498 822.787 297.145L821.954 294.968L821.463 297.147C820.389 297.615 819.312 298.012 818.235 297.142C818.191 295.724 818.496 294.319 819.121 293.066C819.745 291.814 820.666 290.758 821.792 290.005V290.005Z" fill="#2F2E41"/>
<path id="Vector_149" d="M843.616 317.913C839.709 322.508 834.211 325.332 828.308 325.773C822.405 326.214 816.572 324.237 812.066 320.27L814.001 314.69C814.438 313.699 815.127 312.85 815.996 312.233C816.864 311.617 817.879 311.256 818.93 311.19L820.161 311.112L823.095 308.496C823.095 308.496 831.001 308.204 830.883 308.064L835.672 311.042L835.668 311.022L837.551 311.141C838.602 311.206 839.617 311.567 840.485 312.183C841.354 312.8 842.044 313.65 842.481 314.641L843.616 317.913Z" fill="#55A630"/>
</g>
<path id="Vector_150" d="M505.64 315.664L496.992 311.328C495.224 312.126 493.701 313.383 492.581 314.969C491.462 316.554 490.786 318.411 490.625 320.347L490.409 322.932L494.031 322.009L494.428 318.703L495.043 321.751L496.714 321.325L496.698 316.192L498.371 321.322L504.34 319.948L505.64 315.664Z" fill="#2F2E41"/>
<path id="Vector_151" d="M511.443 379.503C506.836 379.503 503.102 375.769 503.102 371.163C503.102 366.556 506.836 362.822 511.443 362.822C516.049 362.822 519.783 366.556 519.783 371.163C519.783 375.769 516.049 379.503 511.443 379.503Z" fill="#EDE8C1"/>
<path id="Vector_152" d="M491.135 393.821C495.67 398.98 502.053 402.149 508.906 402.644C515.758 403.139 522.531 400.92 527.761 396.467L525.516 390.204C525.008 389.092 524.207 388.138 523.199 387.446C522.191 386.754 521.013 386.35 519.792 386.276L518.364 386.188L514.958 383.251C514.958 383.251 505.78 382.924 505.916 382.767L500.357 386.109L500.361 386.086L498.176 386.22C496.955 386.294 495.777 386.698 494.769 387.391C493.76 388.083 492.96 389.036 492.453 390.149L491.135 393.821Z" fill="#052A62"/>
<path id="Vector_153" d="M502.409 366.005C503.126 363.458 504.755 361.259 506.991 359.82C508.773 358.689 510.997 358.112 513.016 358.71C515.034 359.308 516.706 361.273 516.574 363.396C517.302 363.15 518.131 363.478 518.664 364.037C519.198 364.596 519.484 365.348 519.69 366.096C520.338 368.477 520.295 370.991 519.566 373.348L519.606 373.687C518.621 373.525 517.874 372.687 517.41 371.794C516.945 370.901 516.678 369.91 516.174 369.038C515.671 368.167 514.835 367.39 513.837 367.363L513.925 368.875C513.067 368.437 512.209 367.998 511.351 367.56C511.555 368.044 511.759 368.528 511.963 369.013C511.214 368.702 510.464 368.391 509.715 368.08C509.799 368.546 509.882 369.012 509.966 369.478C509.223 367.8 506.924 367.062 505.361 368.001C504.453 368.545 503.857 369.517 503.544 370.536C503.23 371.556 503.168 372.635 503.109 373.701C501.951 371.302 501.702 368.57 502.409 366.005V366.005Z" fill="#2F2E41"/>
<g id="aud2">
<path id="Vector_154" d="M614.793 395.459C608.985 395.459 604.277 390.751 604.277 384.943C604.277 379.135 608.985 374.426 614.793 374.426C620.601 374.426 625.31 379.135 625.31 384.943C625.31 390.751 620.601 395.459 614.793 395.459Z" fill="#2F2E41"/>
<path id="Vector_155" d="M614.793 396.547C609.586 396.547 605.365 392.407 605.365 387.3C605.365 382.193 609.586 378.053 614.793 378.053C620 378.053 624.222 382.193 624.222 387.3C624.222 392.407 620 396.547 614.793 396.547Z" fill="#E2DDB5"/>
<path id="Vector_156" d="M595.574 411.429C600.109 416.681 606.492 419.908 613.344 420.412C620.197 420.916 626.969 418.657 632.2 414.123L629.954 407.746C629.447 406.613 628.646 405.642 627.638 404.938C626.63 404.233 625.452 403.821 624.231 403.746L622.803 403.657L619.396 400.667C619.396 400.667 610.219 400.333 610.355 400.173L604.795 403.577L604.8 403.553L602.615 403.689C601.394 403.764 600.216 404.176 599.207 404.881C598.199 405.586 597.398 406.557 596.891 407.689L595.574 411.429Z" fill="#6C63FF"/>
<path id="Vector_157" d="M605.12 384.158C605.055 383.461 605.025 382.761 605.031 382.061C604.993 380.676 605.245 379.299 605.771 378.019C606.418 376.601 607.571 375.481 609.002 374.879C610.42 374.304 612.005 374.305 613.422 374.883C614.701 374.07 616.123 373.426 617.62 373.346C619.117 373.266 620.7 373.825 621.622 375.054C621.828 375.379 622.062 375.685 622.322 375.968C623.063 376.659 624.19 376.559 625.176 376.418C624.734 376.799 624.292 377.18 623.849 377.561C624.384 377.702 624.92 377.843 625.455 377.983C624.83 378.364 624.206 378.745 623.581 379.126C625.394 380.221 626.218 382.61 626.001 384.78C625.795 386.834 624.809 388.712 623.63 390.382C623.16 389.384 623.261 388.19 623.269 387.066C623.273 386.701 623.251 386.337 623.203 385.975C619.219 386.936 615.057 387.552 610.836 386.027L609.989 383.941C609.87 383.954 609.751 383.965 609.632 383.978L609.142 386.029C608.029 386.486 606.914 386.886 605.799 386.466C605.744 386.783 605.712 387.106 605.687 387.417C605.591 387.045 605.508 386.671 605.433 386.295C605.286 386.215 605.144 386.124 605.011 386.023C604.984 385.399 605.02 384.774 605.12 384.158Z" fill="#2F2E41"/>
</g>
<path id="Vector_158" d="M814.968 346.503C818.973 346.503 822.22 343.013 822.22 338.707C822.22 334.401 818.973 330.91 814.968 330.91C810.962 330.91 807.715 334.401 807.715 338.707C807.715 343.013 810.962 346.503 814.968 346.503Z" fill="#C6BE7F"/>
<path id="Vector_159" d="M832.737 359.454C828.785 364.143 823.224 367.024 817.253 367.474C811.283 367.924 805.382 365.908 800.825 361.859L802.781 356.166C803.223 355.154 803.921 354.288 804.8 353.658C805.678 353.029 806.704 352.661 807.768 352.594L809.013 352.515L811.98 349.845C811.98 349.845 819.977 349.547 819.858 349.404L824.702 352.443L824.698 352.422L826.602 352.544C827.666 352.611 828.692 352.979 829.571 353.608C830.449 354.237 831.147 355.104 831.589 356.115L832.737 359.454Z" fill="#8E9370"/>
<path id="Vector_160" d="M822.606 334.101C821.99 331.797 820.588 329.807 818.665 328.505C817.133 327.482 815.221 326.96 813.484 327.501C811.748 328.042 810.311 329.82 810.425 331.741C809.798 331.518 809.085 331.814 808.627 332.32C808.168 332.826 807.921 333.506 807.745 334.184C807.187 336.338 807.224 338.612 807.851 340.745L807.817 341.051C808.664 340.905 809.306 340.146 809.706 339.338C810.105 338.53 810.335 337.634 810.768 336.845C811.201 336.057 811.92 335.354 812.778 335.329L812.702 336.698C813.44 336.301 814.178 335.904 814.916 335.507C814.741 335.946 814.565 336.384 814.39 336.822C815.034 336.541 815.679 336.26 816.323 335.979C816.251 336.4 816.179 336.821 816.107 337.243C816.746 335.725 818.723 335.058 820.067 335.906C820.848 336.399 821.361 337.278 821.63 338.201C821.9 339.123 821.953 340.099 822.004 341.064C823 338.894 823.214 336.422 822.606 334.101V334.101Z" fill="#2F2E41"/>
<g id="aud5">
<path id="ab6171fa-7d69-4734-b81c-8dff60f9761b_2" d="M789.402 392.558C793.308 392.558 796.474 389.311 796.474 385.305C796.474 381.3 793.308 378.053 789.402 378.053C785.497 378.053 782.331 381.3 782.331 385.305C782.331 389.311 785.497 392.558 789.402 392.558Z" fill="#C6BE7F"/>
<path id="Vector_161" d="M806.627 405.871C802.721 410.561 797.222 413.442 791.32 413.892C785.417 414.342 779.583 412.325 775.078 408.276L777.012 402.583C777.449 401.572 778.139 400.705 779.008 400.076C779.876 399.447 780.891 399.079 781.942 399.011L783.173 398.932L786.107 396.262C786.107 396.262 794.012 395.964 793.895 395.822L798.684 398.86L798.68 398.839L800.562 398.961C801.614 399.028 802.629 399.396 803.497 400.025C804.366 400.654 805.055 401.521 805.492 402.532L806.627 405.871Z" fill="#052A62"/>
<path id="Vector_162" d="M797.92 382.613C797.885 381.905 797.7 381.212 797.379 380.581C797.057 379.95 796.606 379.394 796.056 378.951C795.651 378.63 795.182 378.358 794.914 377.915C794.762 377.601 794.632 377.277 794.527 376.944C793.993 375.669 792.474 374.991 791.11 375.184C789.747 375.377 788.567 376.298 787.773 377.428C787.381 377.239 786.944 377.167 786.513 377.221C786.082 377.274 785.676 377.45 785.341 377.729C785.007 378.007 784.759 378.376 784.627 378.791C784.495 379.207 784.484 379.651 784.596 380.073C783.89 379.502 782.748 379.959 782.307 380.754C781.867 381.55 781.936 382.524 782.067 383.425C782.305 385.054 782.7 386.655 783.248 388.206C783.935 387.598 783.893 386.491 783.809 385.555C783.722 384.582 783.774 383.395 784.621 382.915C785.439 382.452 786.431 382.961 787.333 383.224C788.046 383.427 788.794 383.472 789.526 383.356C790.258 383.24 790.957 382.967 791.573 382.554C792.043 382.234 792.461 381.835 792.968 381.578C793.474 381.321 794.119 381.232 794.59 381.549C795.021 381.838 795.196 382.378 795.342 382.877C795.69 384.06 796.037 385.242 796.384 386.425C796.894 385.935 797.294 385.342 797.559 384.685C797.824 384.027 797.947 383.321 797.92 382.613V382.613Z" fill="#2F2E41"/>
</g>
<g id="aud9">
<path id="Vector_163" d="M615.336 312.349C615.695 314.291 616.284 316.183 617.09 317.984C621.706 327.813 608.56 324.609 603.863 324.609C598.726 324.609 593.812 327.327 594.562 315.249C594.883 310.089 598.726 305.888 603.863 305.888C608.25 305.888 614.418 307.851 615.336 312.349Z" fill="#2F2E41"/>
<path id="Vector_164" d="M604.64 324.383C600.434 324.383 597.024 321.054 597.024 316.949C597.024 312.843 600.434 309.515 604.64 309.515C608.845 309.515 612.255 312.843 612.255 316.949C612.255 321.054 608.845 324.383 604.64 324.383Z" fill="#C6BE7F"/>
<path id="Vector_165" d="M584.332 340.151C588.868 345.31 595.25 348.479 602.103 348.974C608.955 349.469 615.728 347.25 620.958 342.797L618.713 336.534C618.205 335.422 617.405 334.468 616.396 333.776C615.388 333.084 614.21 332.68 612.99 332.606L611.561 332.518L608.155 329.581C608.155 329.581 598.977 329.254 599.113 329.097L593.554 332.44L593.558 332.416L591.373 332.55C590.152 332.624 588.974 333.028 587.966 333.721C586.958 334.413 586.157 335.366 585.65 336.479L584.332 340.151Z" fill="#55A630"/>
<path id="Vector_166" d="M609.898 309.317C608.567 308.518 607.041 308.085 605.482 308.065C603.922 308.045 602.386 308.437 601.033 309.202C599.681 309.967 598.561 311.075 597.793 312.412C597.024 313.748 596.634 315.264 596.663 316.8C600.536 317.757 604.604 318.49 608.734 317.029L609.709 314.678L610.284 317.03C611.542 317.537 612.803 317.965 614.063 317.025C614.115 315.494 613.757 313.976 613.026 312.623C612.296 311.271 611.217 310.131 609.898 309.317V309.317Z" fill="#2F2E41"/>
</g>
<g id="aud6">
<path id="Vector_167" d="M715.606 350.855C720.613 350.855 724.672 346.634 724.672 341.427C724.672 336.219 720.613 331.998 715.606 331.998C710.599 331.998 706.54 336.219 706.54 341.427C706.54 346.634 710.599 350.855 715.606 350.855Z" fill="#2F2E41"/>
<path id="Vector_168" d="M715.606 352.306C720.012 352.306 723.584 348.49 723.584 343.784C723.584 339.077 720.012 335.262 715.606 335.262C711.2 335.262 707.628 339.077 707.628 343.784C707.628 348.49 711.2 352.306 715.606 352.306Z" fill="#E2DDB5"/>
<path id="Vector_169" d="M732.287 365.457C728.38 370.24 722.882 373.179 716.979 373.638C711.077 374.097 705.243 372.04 700.738 367.911L702.672 362.103C703.109 361.071 703.799 360.187 704.667 359.546C705.536 358.904 706.55 358.529 707.602 358.46L708.832 358.379L711.766 355.656C711.766 355.656 719.672 355.352 719.555 355.207L724.344 358.306L724.34 358.285L726.222 358.409C727.274 358.477 728.288 358.852 729.157 359.494C730.025 360.136 730.715 361.02 731.152 362.052L732.287 365.457Z" fill="#6C63FF"/>
<path id="Vector_170" d="M724.207 340.446C724.263 339.809 724.289 339.168 724.284 338.528C724.317 337.261 724.1 336.001 723.646 334.83C723.089 333.533 722.094 332.507 720.861 331.957C719.638 331.431 718.272 331.432 717.051 331.961C715.948 331.217 714.722 330.627 713.432 330.554C712.141 330.481 710.777 330.992 709.981 332.117C709.804 332.414 709.602 332.694 709.379 332.953C708.739 333.585 707.768 333.494 706.918 333.365C707.299 333.714 707.68 334.062 708.062 334.411C707.6 334.54 707.139 334.668 706.678 334.797C707.216 335.146 707.754 335.494 708.293 335.843C706.73 336.844 706.019 339.03 706.207 341.015C706.384 342.895 707.234 344.613 708.251 346.141C708.656 345.228 708.569 344.135 708.562 343.107C708.558 342.773 708.577 342.44 708.619 342.109C712.053 342.988 715.641 343.552 719.28 342.156L720.01 340.248C720.113 340.259 720.215 340.27 720.318 340.282L720.741 342.158C721.7 342.576 722.661 342.942 723.623 342.558C723.669 342.847 723.697 343.143 723.719 343.427C723.802 343.087 723.873 342.745 723.938 342.401C724.065 342.328 724.187 342.245 724.302 342.153C724.325 341.582 724.293 341.01 724.207 340.446V340.446Z" fill="#2F2E41"/>
</g>
</g>
</g>
</svg>
