<svg width="699" height="620" viewBox="0 0 699 620" fill="none" xmlns="http://www.w3.org/2000/svg">
<g id="splash1" style="mix-blend-mode:darken">
<path d="M282.684 37.3298C295.28 37.3298 328.086 30.8377 328.086 0H520.637H699V179.751V591.323C699 591.323 560.743 632.878 537.257 615.942C513.771 599.006 502.8 560.353 427.2 581.093C350.226 602.209 374.422 560.353 303.763 560.353C248.227 560.353 245.951 579.906 180.371 591.323C120.536 601.741 15.5441 443.9 3.38378 393.18C-20.4766 293.66 88.558 206.022 120.536 150.942C180.371 47.8796 272.144 37.3298 282.684 37.3298Z" fill="url(#paint0_linear_17_1006)"/>
</g>
<defs>
<linearGradient id="paint0_linear_17_1006" x1="471.587" y1="25.9686" x2="330.266" y2="556.228" gradientUnits="userSpaceOnUse">
<stop offset="0.0570268" stop-color="#00183F"/>
<stop offset="1" stop-color="#6C83A5"/>
</linearGradient>
</defs>
</svg>
